<svg width="530" height="815" viewBox="0 0 530 815" fill="none" xmlns="http://www.w3.org/2000/svg">
<line opacity="0.7" x1="78.0996" y1="142.429" x2="454.1" y2="142.429" stroke="white" stroke-width="2" stroke-dasharray="4 4"/>
<path opacity="0.7" d="M160 652.273H159V653.273H160V652.273ZM361.564 652.273V653.273H362.564V652.273H361.564ZM260.782 669.888L266.555 659.888H255.008L260.782 669.888ZM159 600.859V603.002H161V600.859H159ZM159 607.286V611.57H161V607.286H159ZM159 615.855V620.139H161V615.855H159ZM159 624.424V628.708H161V624.424H159ZM159 632.993V637.277H161V632.993H159ZM159 641.561V645.846H161V641.561H159ZM159 650.13V652.273H161V650.13H159ZM160 653.273H161.938V651.273H160V653.273ZM165.814 653.273H169.691V651.273H165.814V653.273ZM173.567 653.273H177.443V651.273H173.567V653.273ZM181.319 653.273H185.195V651.273H181.319V653.273ZM189.072 653.273H192.948V651.273H189.072V653.273ZM196.824 653.273H200.7V651.273H196.824V653.273ZM204.577 653.273H208.453V651.273H204.577V653.273ZM212.329 653.273H216.205V651.273H212.329V653.273ZM220.082 653.273H223.958V651.273H220.082V653.273ZM227.834 653.273H231.71V651.273H227.834V653.273ZM235.586 653.273H239.463V651.273H235.586V653.273ZM243.339 653.273H247.215V651.273H243.339V653.273ZM251.091 653.273H254.968V651.273H251.091V653.273ZM258.844 653.273H260.782V651.273H258.844V653.273ZM260.782 653.273H262.72V651.273H260.782V653.273ZM266.596 653.273H270.473V651.273H266.596V653.273ZM274.349 653.273H278.225V651.273H274.349V653.273ZM282.101 653.273H285.977V651.273H282.101V653.273ZM289.854 653.273H293.73V651.273H289.854V653.273ZM297.606 653.273H301.482V651.273H297.606V653.273ZM305.359 653.273H309.235V651.273H305.359V653.273ZM313.111 653.273H316.987V651.273H313.111V653.273ZM320.864 653.273H324.74V651.273H320.864V653.273ZM328.616 653.273H332.492V651.273H328.616V653.273ZM336.368 653.273H340.245V651.273H336.368V653.273ZM344.121 653.273H347.997V651.273H344.121V653.273ZM351.873 653.273H355.75V651.273H351.873V653.273ZM359.626 653.273H361.564V651.273H359.626V653.273ZM362.564 652.273V650.13H360.564V652.273H362.564ZM362.564 645.846V641.561H360.564V645.846H362.564ZM362.564 637.277V632.993H360.564V637.277H362.564ZM362.564 628.708V624.424H360.564V628.708H362.564ZM362.564 620.139V615.855H360.564V620.139H362.564ZM362.564 611.57V607.286H360.564V611.57H362.564ZM362.564 603.002V600.859H360.564V603.002H362.564ZM259.782 652.273V654.475H261.782V652.273H259.782ZM259.782 658.878V663.282H261.782V658.878H259.782Z" fill="white"/>
<path opacity="0.7" d="M79 483.057H78V484.057H79V483.057ZM165.743 483.057H166.743V482.057H165.743V483.057ZM78 431.644V433.786H80V431.644H78ZM78 438.071V442.355H80V438.071H78ZM78 446.64V450.924H80V446.64H78ZM78 455.208V459.493H80V455.208H78ZM78 463.777V468.062H80V463.777H78ZM78 472.346V476.631H80V472.346H78ZM78 480.915V483.057H80V480.915H78ZM79 484.057H80.9714V482.057H79V484.057ZM84.9143 484.057H88.8571V482.057H84.9143V484.057ZM92.8 484.057H96.7428V482.057H92.8V484.057ZM100.686 484.057H104.629V482.057H100.686V484.057ZM108.571 484.057H112.514V482.057H108.571V484.057ZM116.457 484.057H120.4V482.057H116.457V484.057ZM124.343 484.057H128.286V482.057H124.343V484.057ZM132.228 484.057H136.171V482.057H132.228V484.057ZM140.114 484.057H144.057V482.057H140.114V484.057ZM148 484.057H151.943V482.057H148V484.057ZM155.886 484.057H159.828V482.057H155.886V484.057ZM163.771 484.057H165.743V482.057H163.771V484.057ZM164.743 483.057V485.467H166.743V483.057H164.743ZM164.743 490.286V495.106H166.743V490.286H164.743ZM164.743 499.925V502.335H166.743V499.925H164.743Z" fill="white"/>
<path opacity="0.7" d="M265.109 431.644V483.057H360.065M455.021 431.644V483.057H360.065M360.065 483.057V500" stroke="white" stroke-width="2" stroke-dasharray="4 4"/>
<path opacity="0.7" d="M265 169.797L264.109 90.7969" stroke="white" stroke-width="2" stroke-dasharray="4 4"/>
<line opacity="0.7" x1="320" y1="234" x2="388" y2="234" stroke="white" stroke-width="2" stroke-dasharray="4 4"/>
<path opacity="0.7" d="M454.021 169.797L454.021 143.429" stroke="white" stroke-width="2" stroke-dasharray="4 4"/>
<path opacity="0.7" d="M78.0996 169.797L78.0996 143.429" stroke="white" stroke-width="2" stroke-dasharray="4 4"/>
<path opacity="0.7" d="M450.002 335.481L450.002 291.481" stroke="white" stroke-width="2" stroke-dasharray="4 4"/>
<path opacity="0.7" d="M265.99 335.481L265.99 291.481" stroke="white" stroke-width="2" stroke-dasharray="4 4"/>
<path opacity="0.7" d="M78.0996 335.481L78.0996 291.481" stroke="white" stroke-width="2" stroke-dasharray="4 4"/>
</svg>
